<svg xmlns="http://www.w3.org/2000/svg" xmlns:xlink="http://www.w3.org/1999/xlink" viewBox="0 0 45 45"><defs><style>.cls-1{fill:url(#linear-gradient);}</style><linearGradient id="linear-gradient" y1="22.5" x2="45" y2="22.5" gradientUnits="userSpaceOnUse"><stop offset="0" stop-color="#e71a7a"/><stop offset="1" stop-color="#ed6b1e"/></linearGradient></defs><g id="Layer_2" data-name="Layer 2"><g id="Layer_1-2" data-name="Layer 1"><path class="cls-1" d="M39.41,7.66A22.5,22.5,0,1,0,45,22.5,22.24,22.24,0,0,0,39.41,7.66ZM22.5,26.09a2.69,2.69,0,1,1,2.71-2.69A2.71,2.71,0,0,1,22.5,26.09ZM25.21,28a5.3,5.3,0,0,0,2.71-4.63,5.42,5.42,0,0,0-10.84,0A5.3,5.3,0,0,0,19.79,28l-1.35,2.35a8.13,8.13,0,1,1,8.12,0Zm4.06,7-1.35-2.35a10.57,10.57,0,0,0,5.41-9.25,10.83,10.83,0,0,0-21.66,0,10.64,10.64,0,0,0,5.41,9.25L15.73,35A13.37,13.37,0,0,1,9,23.4,13.54,13.54,0,0,1,36,23.4,13.37,13.37,0,0,1,29.27,35Z"/></g></g></svg>